<?xml version="1.0" encoding="UTF-8" standalone="no"?>
<!-- Created with Inkscape (http://www.inkscape.org/) -->

<svg
   xmlns:dc="http://purl.org/dc/elements/1.1/"
   xmlns:cc="http://creativecommons.org/ns#"
   xmlns:rdf="http://www.w3.org/1999/02/22-rdf-syntax-ns#"
   xmlns:svg="http://www.w3.org/2000/svg"
   xmlns="http://www.w3.org/2000/svg"
   xmlns:sodipodi="http://sodipodi.sourceforge.net/DTD/sodipodi-0.dtd"
   xmlns:inkscape="http://www.inkscape.org/namespaces/inkscape"
   width="210mm"
   height="297mm"
   id="svg2"
   version="1.1"
   inkscape:version="0.48+devel r12427"
   sodipodi:docname="vector.svg">
  <defs
     id="defs4" />
  <sodipodi:namedview
     id="base"
     pagecolor="#ffffff"
     bordercolor="#666666"
     borderopacity="1.0"
     inkscape:pageopacity="0.0"
     inkscape:pageshadow="2"
     inkscape:zoom="0.7"
     inkscape:cx="-548.06786"
     inkscape:cy="946.65379"
     inkscape:document-units="px"
     inkscape:current-layer="layer1"
     showgrid="false"
     inkscape:snap-bbox="true"
     inkscape:snap-bbox-edge-midpoints="false"
     inkscape:bbox-nodes="true"
     inkscape:snap-global="false"
     inkscape:object-paths="true"
     inkscape:snap-intersection-paths="true"
     inkscape:snap-nodes="false"
     inkscape:snap-bbox-midpoints="true"
     inkscape:snap-object-midpoints="true"
     inkscape:window-width="1920"
     inkscape:window-height="1018"
     inkscape:window-x="1672"
     inkscape:window-y="-8"
     inkscape:window-maximized="1" />
  <metadata
     id="metadata7">
    <rdf:RDF>
      <cc:Work
         rdf:about="">
        <dc:format>image/svg+xml</dc:format>
        <dc:type
           rdf:resource="http://purl.org/dc/dcmitype/StillImage" />
      </cc:Work>
    </rdf:RDF>
  </metadata>
  <g
     inkscape:label="Laag 1"
     inkscape:groupmode="layer"
     id="layer1">
    <g
       id="g4434"
       transform="matrix(0,1,-1,0,600.389,-76.064564)"
       inkscape:export-filename="C:\Users\Guido\Documents\GitHub\LD31\LD31\LD31\assets\ship2.png"
       inkscape:export-xdpi="34"
       inkscape:export-ydpi="34">
      <g
         inkscape:export-ydpi="34.970356"
         inkscape:export-xdpi="34.970356"
         inkscape:export-filename="C:\Users\Guido\Documents\GitHub\LD31\LD31\LD31\assets\ship2.png"
         id="g4238">
        <g
           id="g4107">
          <path
             style="fill:#4d4d4d;fill-opacity:1;stroke:none"
             d="m 323.62194,201.72241 -2.50663,125.30672 c -5.53186,-0.87125 -37.38771,-1.04552 -65.02337,-0.41229 2.94417,-1.46025 1.54803,-4.94846 2.6864,-8.77393 0.53471,-1.79689 10.53253,-5.68047 11.97849,-6.87841 C 301.25728,285.69553 307.32598,250.05494 323.62194,201.72241 Z"
             id="path4035"
             inkscape:connector-curvature="0"
             sodipodi:nodetypes="cccssc" />
          <path
             sodipodi:nodetypes="ccccc"
             inkscape:connector-curvature="0"
             id="rect4045"
             d="m 260.10724,324.05296 c 27.24165,0.57381 56.24332,-1.13006 78.11954,6.38725 l -1.41753,11.34031 C 312.06964,338.04264 293.05903,331.35729 258.43717,330.08997 Z"
             style="fill:#4d4d4d;fill-opacity:1;stroke:none" />
          <path
             sodipodi:nodetypes="cccssc"
             inkscape:connector-curvature="0"
             id="path4060"
             d="m 324.47364,219.39674 -2.08241,104.1002 c -4.59567,-0.72381 -31.06033,-0.86858 -54.01901,-0.34252 2.4459,-1.21312 1.28604,-4.111 2.23176,-7.28906 0.44421,-1.49279 8.75003,-4.71912 9.95128,-5.71432 C 305.89391,289.15851 310.93556,259.54962 324.47364,219.39674 Z"
             style="fill:#999999;fill-opacity:1;stroke:none" />
          <path
             sodipodi:nodetypes="ccccsc"
             inkscape:connector-curvature="0"
             id="rect4032"
             d="m 338.2143,157.93108 0.35714,62.91729 0,120.39085 c -3.19157,2.26117 -2.65225,0.8473 -18.59645,-0.60233 1.36865,-18.16807 0.36492,-83.64991 0.36492,-132.85267 C 320.33991,174.44658 326.15803,158.45561 338.2143,157.93108 Z"
             style="fill:#cccccc;fill-opacity:1;stroke:none" />
          <path
             sodipodi:nodetypes="ccccc"
             inkscape:connector-curvature="0"
             id="rect4048"
             d="m 320.47089,321.26427 c 6.59384,-0.51998 13.30774,-1.42681 18.43529,2.77792 l -0.31567,23.29664 -25.7589,0.18941 C 312.93131,338.81555 320.61543,327.03915 320.47089,321.26427 Z"
             style="fill:#b3b3b3;fill-opacity:1;stroke:none" />
          <path
             sodipodi:nodetypes="ccccc"
             inkscape:connector-curvature="0"
             id="rect4101"
             d="m 321.16863,348.60945 17.81467,0 c -0.56337,2.83637 -1.71356,5.60097 0,8.71585 -5.21655,0.80702 -10.53443,1.50075 -17.81467,0 C 322.36328,354.42001 322.95531,351.51473 321.16863,348.60945 Z"
             style="fill:#333333;fill-opacity:1;stroke:none" />
          <path
             id="rect4051"
             d="m 338.21484,157.93164 c -6.20238,0.26985 -10.74945,4.64481 -13.70703,13.35742 4.55866,-0.59836 9.14756,-0.92457 13.77735,-0.88281 L 338.21484,157.93164 Z"
             style="fill:#1a1a1a;fill-opacity:1;stroke:none"
             inkscape:connector-curvature="0" />
          <path
             sodipodi:nodetypes="ccccc"
             inkscape:connector-curvature="0"
             id="rect4057"
             d="m 333.1919,330.67906 5.71428,-6.69643 0,42.41072 L 337.20976,361.39335 Z"
             style="fill:#1a1a1a;fill-opacity:1;stroke:none" />
          <path
             sodipodi:nodetypes="ccccc"
             inkscape:connector-curvature="0"
             id="rect4104"
             d="m 312.87833,346.81779 25.67301,0.24237 -0.18941,7.70241 c -8.12877,-4.56088 -15.73419,-0.22458 -23.56395,0.29773 C 315.39034,352.18679 311.47183,349.41658 312.87833,346.81779 Z"
             style="fill:#000000;fill-opacity:1;stroke:none" />
        </g>
        <g
           id="g4118">
          <path
             sodipodi:nodetypes="cccssc"
             inkscape:connector-curvature="0"
             id="path4120"
             d="m 323.62194,201.72241 -2.50663,125.30672 c -5.53186,-0.87125 -37.38771,-1.04552 -65.02337,-0.41229 2.94417,-1.46025 1.54803,-4.94846 2.6864,-8.77393 0.53471,-1.79689 10.53253,-5.68047 11.97849,-6.87841 C 301.25728,285.69553 307.32598,250.05494 323.62194,201.72241 Z"
             style="fill:#4d4d4d;fill-opacity:1;stroke:none" />
          <path
             style="fill:#4d4d4d;fill-opacity:1;stroke:none"
             d="m 260.10724,324.05296 c 27.24165,0.57381 56.24332,-1.13006 78.11954,6.38725 l -1.41753,11.34031 C 312.06964,338.04264 293.05903,331.35729 258.43717,330.08997 Z"
             id="path4122"
             inkscape:connector-curvature="0"
             sodipodi:nodetypes="ccccc" />
          <path
             style="fill:#999999;fill-opacity:1;stroke:none"
             d="m 324.47364,219.39674 -2.08241,104.1002 c -4.59567,-0.72381 -31.06033,-0.86858 -54.01901,-0.34252 2.4459,-1.21312 1.28604,-4.111 2.23176,-7.28906 0.44421,-1.49279 8.75003,-4.71912 9.95128,-5.71432 C 305.89391,289.15851 310.93556,259.54962 324.47364,219.39674 Z"
             id="path4124"
             inkscape:connector-curvature="0"
             sodipodi:nodetypes="cccssc" />
          <path
             style="fill:#cccccc;fill-opacity:1;stroke:none"
             d="m 338.2143,157.93108 0.35714,62.91729 0,120.39085 c -3.19157,2.26117 -2.65225,0.8473 -18.59645,-0.60233 1.36865,-18.16807 0.36492,-83.64991 0.36492,-132.85267 C 320.33991,174.44658 326.15803,158.45561 338.2143,157.93108 Z"
             id="path4126"
             inkscape:connector-curvature="0"
             sodipodi:nodetypes="ccccsc" />
          <path
             style="fill:#b3b3b3;fill-opacity:1;stroke:none"
             d="m 320.47089,321.26427 c 6.59384,-0.51998 13.30774,-1.42681 18.43529,2.77792 l -0.31567,23.29664 -25.7589,0.18941 C 312.93131,338.81555 320.61543,327.03915 320.47089,321.26427 Z"
             id="path4128"
             inkscape:connector-curvature="0"
             sodipodi:nodetypes="ccccc" />
          <path
             style="fill:#333333;fill-opacity:1;stroke:none"
             d="m 321.16863,348.60945 17.81467,0 c -0.56337,2.83637 -1.71356,5.60097 0,8.71585 -5.21655,0.80702 -10.53443,1.50075 -17.81467,0 C 322.36328,354.42001 322.95531,351.51473 321.16863,348.60945 Z"
             id="path4130"
             inkscape:connector-curvature="0"
             sodipodi:nodetypes="ccccc" />
          <path
             style="fill:#1a1a1a;fill-opacity:1;stroke:none"
             d="m 338.21484,157.93164 c -6.20238,0.26985 -10.74945,4.64481 -13.70703,13.35742 4.55866,-0.59836 9.14756,-0.92457 13.77735,-0.88281 L 338.21484,157.93164 Z"
             id="path4132"
             inkscape:connector-curvature="0" />
          <path
             style="fill:#1a1a1a;fill-opacity:1;stroke:none"
             d="m 333.1919,330.67906 5.71428,-6.69643 0,42.41072 L 337.20976,361.39335 Z"
             id="path4134"
             inkscape:connector-curvature="0"
             sodipodi:nodetypes="ccccc" />
          <path
             style="fill:#000000;fill-opacity:1;stroke:none"
             d="m 312.87833,346.81779 25.67301,0.24237 -0.18941,7.70241 c -8.12877,-4.56088 -15.73419,-0.22458 -23.56395,0.29773 C 315.39034,352.18679 311.47183,349.41658 312.87833,346.81779 Z"
             id="path4136"
             inkscape:connector-curvature="0"
             sodipodi:nodetypes="ccccc" />
        </g>
        <path
           style="fill:#000000;fill-opacity:1;stroke:none"
           d="m 324.15249,180.09228 c 1.76202,0.6088 2.91745,1.5701 4.70446,2.60701 0.58189,1.86858 -1.42021,2.18675 -2.33598,3.15673 -0.96806,0.46766 -1.93613,0.54137 -2.90419,0 C 323.07539,183.87478 323.68485,181.98944 324.15249,180.09228 Z"
           id="rect4138"
           inkscape:connector-curvature="0"
           sodipodi:nodetypes="ccccc" />
        <path
           sodipodi:nodetypes="ccccc"
           inkscape:connector-curvature="0"
           id="path4141"
           d="m 329.63908,175.73642 c 0.83439,0.69623 1.07948,2.06275 2.7696,3.57898 -2.16579,0.96166 -1.79212,1.96859 -2.47439,2.2212 -1.05734,-0.33591 -3.1218,-1.83882 -4.08986,-2.38019 C 325.66004,177.51857 327.14585,174.73754 329.63908,175.73642 Z"
           style="fill:#000000;fill-opacity:1;stroke:none" />
        <path
           style="fill:#000000;fill-opacity:1;stroke:none"
           d="m 334.10352,174.48438 c -0.9281,0.0179 -1.79476,0.13116 -2.40625,0.33398 0.26287,0.986 1.84618,3.3365 2.32031,4.12891 l 4.3164,0.0195 -0.0215,-3.78321 C 337.32542,174.68456 335.63422,174.45489 334.10352,174.48438 Z"
           id="rect4143"
           inkscape:connector-curvature="0" />
        <g
           id="g4146">
          <path
             style="fill:#4d4d4d;fill-opacity:1;stroke:none"
             d="m 323.62194,201.72241 -2.50663,125.30672 c -5.53186,-0.87125 -37.38771,-1.04552 -65.02337,-0.41229 2.94417,-1.46025 1.54803,-4.94846 2.6864,-8.77393 0.53471,-1.79689 10.53253,-5.68047 11.97849,-6.87841 C 301.25728,285.69553 307.32598,250.05494 323.62194,201.72241 Z"
             id="path4148"
             inkscape:connector-curvature="0"
             sodipodi:nodetypes="cccssc" />
          <path
             sodipodi:nodetypes="ccccc"
             inkscape:connector-curvature="0"
             id="path4150"
             d="m 260.10724,324.05296 c 27.24165,0.57381 56.24332,-1.13006 78.11954,6.38725 l -1.41753,11.34031 C 312.06964,338.04264 293.05903,331.35729 258.43717,330.08997 Z"
             style="fill:#4d4d4d;fill-opacity:1;stroke:none" />
          <path
             sodipodi:nodetypes="cccssc"
             inkscape:connector-curvature="0"
             id="path4152"
             d="m 323.31293,218.50388 -0.9217,104.99306 c -4.59567,-0.72381 -31.06033,-0.86858 -54.01901,-0.34252 2.4459,-1.21312 1.28604,-4.111 2.23176,-7.28906 0.44421,-1.49279 8.75003,-4.71912 9.95128,-5.71432 C 305.89391,289.15851 309.77485,258.65676 323.31293,218.50388 Z"
             style="fill:#999999;fill-opacity:1;stroke:none" />
          <path
             sodipodi:nodetypes="ccccc"
             inkscape:connector-curvature="0"
             id="path4156"
             d="m 320.47089,321.26427 c 6.59384,-0.51998 13.30774,-1.42681 18.43529,2.77792 l -0.31567,23.29664 -25.7589,0.18941 C 312.93131,338.81555 320.61543,327.03915 320.47089,321.26427 Z"
             style="fill:#b3b3b3;fill-opacity:1;stroke:none" />
          <path
             sodipodi:nodetypes="ccccc"
             inkscape:connector-curvature="0"
             id="path4158"
             d="m 321.16863,348.60945 17.81467,0 c -0.56337,2.83637 -1.71356,5.60097 0,8.71585 -5.21655,0.80702 -10.53443,1.50075 -17.81467,0 C 322.36328,354.42001 322.95531,351.51473 321.16863,348.60945 Z"
             style="fill:#333333;fill-opacity:1;stroke:none" />
          <path
             id="path4160"
             d="m 338.21484,157.93164 c -6.20238,0.26985 -10.74945,4.64481 -13.70703,13.35742 4.55866,-0.59836 9.14756,-0.92457 13.77735,-0.88281 L 338.21484,157.93164 Z"
             style="fill:#1a1a1a;fill-opacity:1;stroke:none"
             inkscape:connector-curvature="0" />
          <path
             sodipodi:nodetypes="ccccc"
             inkscape:connector-curvature="0"
             id="path4162"
             d="m 333.1919,330.67906 5.71428,-6.69643 0,42.41072 L 337.20976,361.39335 Z"
             style="fill:#1a1a1a;fill-opacity:1;stroke:none" />
          <path
             sodipodi:nodetypes="ccccc"
             inkscape:connector-curvature="0"
             id="path4164"
             d="m 312.87833,346.81779 25.67301,0.24237 -0.18941,7.70241 c -8.12877,-4.56088 -15.73419,-0.22458 -23.56395,0.29773 C 315.39034,352.18679 311.47183,349.41658 312.87833,346.81779 Z"
             style="fill:#000000;fill-opacity:1;stroke:none" />
        </g>
        <g
           id="g4167">
          <path
             sodipodi:nodetypes="cccssc"
             inkscape:connector-curvature="0"
             id="path4169"
             d="m 323.62194,201.72241 -2.50663,125.30672 c -5.53186,-0.87125 -37.38771,-1.04552 -65.02337,-0.41229 2.94417,-1.46025 1.54803,-4.94846 2.6864,-8.77393 0.53471,-1.79689 10.53253,-5.68047 11.97849,-6.87841 C 301.25728,285.69553 307.32598,250.05494 323.62194,201.72241 Z"
             style="fill:#4d4d4d;fill-opacity:1;stroke:none" />
          <path
             style="fill:#4d4d4d;fill-opacity:1;stroke:none"
             d="m 260.10724,324.05296 c 27.24165,0.57381 56.24332,-1.13006 78.11954,6.38725 l -1.41753,11.34031 C 312.06964,338.04264 293.05903,331.35729 258.43717,330.08997 Z"
             id="path4171"
             inkscape:connector-curvature="0"
             sodipodi:nodetypes="ccccc" />
          <path
             style="fill:#999999;fill-opacity:1;stroke:none"
             d="m 324.47364,219.39674 -2.08241,104.1002 c -4.59567,-0.72381 -31.06033,-0.86858 -54.01901,-0.34252 2.4459,-1.21312 1.28604,-4.111 2.23176,-7.28906 0.44421,-1.49279 8.75003,-4.71912 9.95128,-5.71432 C 305.89391,289.15851 310.93556,259.54962 324.47364,219.39674 Z"
             id="path4173"
             inkscape:connector-curvature="0"
             sodipodi:nodetypes="cccssc" />
          <path
             style="fill:#cccccc;fill-opacity:1;stroke:none"
             d="m 338.2143,157.93108 0.35714,62.91729 0,120.39085 c -3.19157,2.26117 -2.65225,0.8473 -18.59645,-0.60233 1.36865,-18.16807 0.36492,-83.64991 0.36492,-132.85267 C 320.33991,174.44658 326.15803,158.45561 338.2143,157.93108 Z"
             id="path4175"
             inkscape:connector-curvature="0"
             sodipodi:nodetypes="ccccsc" />
          <path
             style="fill:#b3b3b3;fill-opacity:1;stroke:none"
             d="m 320.47089,321.26427 c 6.59384,-0.51998 13.30774,-1.42681 18.43529,2.77792 l -0.31567,23.29664 -25.7589,0.18941 C 312.93131,338.81555 320.61543,327.03915 320.47089,321.26427 Z"
             id="path4177"
             inkscape:connector-curvature="0"
             sodipodi:nodetypes="ccccc" />
          <path
             style="fill:#333333;fill-opacity:1;stroke:none"
             d="m 321.16863,348.60945 17.81467,0 c -0.56337,2.83637 -1.71356,5.60097 0,8.71585 -5.21655,0.80702 -10.53443,1.50075 -17.81467,0 C 322.36328,354.42001 322.95531,351.51473 321.16863,348.60945 Z"
             id="path4179"
             inkscape:connector-curvature="0"
             sodipodi:nodetypes="ccccc" />
          <path
             style="fill:#1a1a1a;fill-opacity:1;stroke:none"
             d="m 338.21484,157.93164 c -6.20238,0.26985 -10.74945,4.64481 -13.70703,13.35742 4.55866,-0.59836 9.14756,-0.92457 13.77735,-0.88281 L 338.21484,157.93164 Z"
             id="path4181"
             inkscape:connector-curvature="0" />
          <path
             style="fill:#1a1a1a;fill-opacity:1;stroke:none"
             d="m 333.1919,330.67906 5.71428,-6.69643 0,42.41072 L 337.20976,361.39335 Z"
             id="path4183"
             inkscape:connector-curvature="0"
             sodipodi:nodetypes="ccccc" />
          <path
             style="fill:#000000;fill-opacity:1;stroke:none"
             d="m 312.87833,346.81779 25.67301,0.24237 -0.18941,7.70241 c -8.12877,-4.56088 -15.73419,-0.22458 -23.56395,0.29773 C 315.39034,352.18679 311.47183,349.41658 312.87833,346.81779 Z"
             id="path4185"
             inkscape:connector-curvature="0"
             sodipodi:nodetypes="ccccc" />
        </g>
        <g
           id="g4187">
          <path
             style="fill:#4d4d4d;fill-opacity:1;stroke:none"
             d="m 323.62194,201.72241 -2.50663,125.30672 c -5.53186,-0.87125 -37.38771,-1.04552 -65.02337,-0.41229 2.94417,-1.46025 1.54803,-4.94846 2.6864,-8.77393 0.53471,-1.79689 10.53253,-5.68047 11.97849,-6.87841 C 301.25728,285.69553 307.32598,250.05494 323.62194,201.72241 Z"
             id="path4189"
             inkscape:connector-curvature="0"
             sodipodi:nodetypes="cccssc" />
          <path
             sodipodi:nodetypes="ccccc"
             inkscape:connector-curvature="0"
             id="path4191"
             d="m 260.10724,324.05296 c 27.24165,0.57381 56.24332,-1.13006 78.11954,6.38725 l -1.41753,11.34031 C 312.06964,338.04264 293.05903,331.35729 258.43717,330.08997 Z"
             style="fill:#4d4d4d;fill-opacity:1;stroke:none" />
          <path
             sodipodi:nodetypes="cccssc"
             inkscape:connector-curvature="0"
             id="path4193"
             d="m 324.47364,219.39674 -2.08241,104.1002 c -4.59567,-0.72381 -31.06033,-0.86858 -54.01901,-0.34252 2.4459,-1.21312 1.28604,-4.111 2.23176,-7.28906 0.44421,-1.49279 8.75003,-4.71912 9.95128,-5.71432 C 305.89391,289.15851 310.93556,259.54962 324.47364,219.39674 Z"
             style="fill:#999999;fill-opacity:1;stroke:none" />
          <path
             sodipodi:nodetypes="ccccsc"
             inkscape:connector-curvature="0"
             id="path4195"
             d="m 338.2143,157.93108 0.35714,62.91729 0,120.39085 c -3.19157,2.26117 -2.65225,0.8473 -18.59645,-0.60233 1.36865,-18.16807 0.36492,-83.64991 0.36492,-132.85267 C 320.33991,174.44658 326.15803,158.45561 338.2143,157.93108 Z"
             style="fill:#cccccc;fill-opacity:1;stroke:none" />
          <path
             sodipodi:nodetypes="ccccc"
             inkscape:connector-curvature="0"
             id="path4197"
             d="m 320.47089,321.26427 c 6.59384,-0.51998 13.30774,-1.42681 18.43529,2.77792 l -0.31567,23.29664 -25.7589,0.18941 C 312.93131,338.81555 320.61543,327.03915 320.47089,321.26427 Z"
             style="fill:#b3b3b3;fill-opacity:1;stroke:none" />
          <path
             sodipodi:nodetypes="ccccc"
             inkscape:connector-curvature="0"
             id="path4199"
             d="m 321.16863,348.60945 17.81467,0 c -0.56337,2.83637 -1.71356,5.60097 0,8.71585 -5.21655,0.80702 -10.53443,1.50075 -17.81467,0 C 322.36328,354.42001 322.95531,351.51473 321.16863,348.60945 Z"
             style="fill:#333333;fill-opacity:1;stroke:none" />
          <path
             id="path4201"
             d="m 338.21484,157.93164 c -6.20238,0.26985 -10.74945,4.64481 -13.70703,13.35742 4.55866,-0.59836 9.14756,-0.92457 13.77735,-0.88281 L 338.21484,157.93164 Z"
             style="fill:#1a1a1a;fill-opacity:1;stroke:none"
             inkscape:connector-curvature="0" />
          <path
             sodipodi:nodetypes="ccccc"
             inkscape:connector-curvature="0"
             id="path4203"
             d="m 333.1919,330.67906 5.71428,-6.69643 0,42.41072 L 337.20976,361.39335 Z"
             style="fill:#1a1a1a;fill-opacity:1;stroke:none" />
          <path
             sodipodi:nodetypes="ccccc"
             inkscape:connector-curvature="0"
             id="path4205"
             d="m 312.87833,346.81779 25.67301,0.24237 -0.18941,7.70241 c -8.12877,-4.56088 -15.73419,-0.22458 -23.56395,0.29773 C 315.39034,352.18679 311.47183,349.41658 312.87833,346.81779 Z"
             style="fill:#000000;fill-opacity:1;stroke:none" />
        </g>
        <path
           sodipodi:nodetypes="ccccc"
           inkscape:connector-curvature="0"
           id="path4207"
           d="m 324.15249,180.09228 c 1.76202,0.6088 2.91745,1.5701 4.70446,2.60701 0.58189,1.86858 -1.42021,2.18675 -2.33598,3.15673 -0.96806,0.46766 -1.93613,0.54137 -2.90419,0 C 323.07539,183.87478 323.68485,181.98944 324.15249,180.09228 Z"
           style="fill:#000000;fill-opacity:1;stroke:none" />
        <path
           style="fill:#000000;fill-opacity:1;stroke:none"
           d="m 329.63908,175.73642 c 0.83439,0.69623 1.07948,2.06275 2.7696,3.57898 -2.16579,0.96166 -1.79212,1.96859 -2.47439,2.2212 -1.05734,-0.33591 -3.1218,-1.83882 -4.08986,-2.38019 C 325.66004,177.51857 327.14585,174.73754 329.63908,175.73642 Z"
           id="path4209"
           inkscape:connector-curvature="0"
           sodipodi:nodetypes="ccccc" />
        <path
           id="path4211"
           d="m 334.10352,174.48438 c -0.9281,0.0179 -1.79476,0.13116 -2.40625,0.33398 0.26287,0.986 1.84618,3.3365 2.32031,4.12891 l 4.3164,0.0195 -0.0215,-3.78321 C 337.32542,174.68456 335.63422,174.45489 334.10352,174.48438 Z"
           style="fill:#000000;fill-opacity:1;stroke:none"
           inkscape:connector-curvature="0" />
        <g
           id="g4213">
          <path
             sodipodi:nodetypes="cccssc"
             inkscape:connector-curvature="0"
             id="path4215"
             d="m 323.62194,201.72241 -2.50663,125.30672 c -5.53186,-0.87125 -37.38771,-1.04552 -65.02337,-0.41229 2.94417,-1.46025 1.54803,-4.94846 2.6864,-8.77393 0.53471,-1.79689 10.53253,-5.68047 11.97849,-6.87841 C 301.25728,285.69553 307.32598,250.05494 323.62194,201.72241 Z"
             style="fill:#4d4d4d;fill-opacity:1;stroke:none" />
          <path
             style="fill:#4d4d4d;fill-opacity:1;stroke:none"
             d="m 260.10724,324.05296 c 27.24165,0.57381 56.24332,-1.13006 78.11954,6.38725 l -1.41753,11.34031 C 312.06964,338.04264 293.05903,331.35729 258.43717,330.08997 Z"
             id="path4217"
             inkscape:connector-curvature="0"
             sodipodi:nodetypes="ccccc" />
          <path
             style="fill:#999999;fill-opacity:1;stroke:none"
             d="m 323.31293,218.50388 -0.9217,104.99306 c -4.59567,-0.72381 -31.06033,-0.86858 -54.01901,-0.34252 2.4459,-1.21312 1.28604,-4.111 2.23176,-7.28906 0.44421,-1.49279 8.75003,-4.71912 9.95128,-5.71432 C 305.89391,289.15851 309.77485,258.65676 323.31293,218.50388 Z"
             id="path4219"
             inkscape:connector-curvature="0"
             sodipodi:nodetypes="cccssc" />
          <path
             style="fill:#b3b3b3;fill-opacity:1;stroke:none"
             d="m 320.47089,321.26427 c 6.59384,-0.51998 13.30774,-1.42681 18.43529,2.77792 l -0.31567,23.29664 -25.7589,0.18941 C 312.93131,338.81555 320.61543,327.03915 320.47089,321.26427 Z"
             id="path4221"
             inkscape:connector-curvature="0"
             sodipodi:nodetypes="ccccc" />
          <path
             style="fill:#333333;fill-opacity:1;stroke:none"
             d="m 321.16863,348.60945 17.81467,0 c -0.56337,2.83637 -1.71356,5.60097 0,8.71585 -5.21655,0.80702 -10.53443,1.50075 -17.81467,0 C 322.36328,354.42001 322.95531,351.51473 321.16863,348.60945 Z"
             id="path4223"
             inkscape:connector-curvature="0"
             sodipodi:nodetypes="ccccc" />
          <path
             style="fill:#1a1a1a;fill-opacity:1;stroke:none"
             d="m 338.21484,157.93164 c -6.20238,0.26985 -10.74945,4.64481 -13.70703,13.35742 4.55866,-0.59836 9.14756,-0.92457 13.77735,-0.88281 L 338.21484,157.93164 Z"
             id="path4225"
             inkscape:connector-curvature="0" />
          <path
             style="fill:#1a1a1a;fill-opacity:1;stroke:none"
             d="m 333.1919,330.67906 5.71428,-6.69643 0,42.41072 L 337.20976,361.39335 Z"
             id="path4227"
             inkscape:connector-curvature="0"
             sodipodi:nodetypes="ccccc" />
          <path
             style="fill:#000000;fill-opacity:1;stroke:none"
             d="m 312.87833,346.81779 25.67301,0.24237 -0.18941,7.70241 c -8.12877,-4.56088 -15.73419,-0.22458 -23.56395,0.29773 C 315.39034,352.18679 311.47183,349.41658 312.87833,346.81779 Z"
             id="path4229"
             inkscape:connector-curvature="0"
             sodipodi:nodetypes="ccccc" />
        </g>
      </g>
      <g
         inkscape:export-ydpi="34.970356"
         inkscape:export-xdpi="34.970356"
         inkscape:export-filename="C:\Users\Guido\Documents\GitHub\LD31\LD31\LD31\assets\ship2.png"
         transform="matrix(-1,0,0,1,708.64667,1.4285714)"
         id="g4304">
        <g
           transform="translate(32.19311,-1.4285714)"
           id="g4306">
          <path
             sodipodi:nodetypes="cccssc"
             inkscape:connector-curvature="0"
             id="path4308"
             d="m 323.62194,201.72241 -2.50663,125.30672 c -5.53186,-0.87125 -37.38771,-1.04552 -65.02337,-0.41229 2.94417,-1.46025 1.54803,-4.94846 2.6864,-8.77393 0.53471,-1.79689 10.53253,-5.68047 11.97849,-6.87841 C 301.25728,285.69553 307.32598,250.05494 323.62194,201.72241 Z"
             style="fill:#4d4d4d;fill-opacity:1;stroke:none" />
          <path
             style="fill:#4d4d4d;fill-opacity:1;stroke:none"
             d="m 260.10724,324.05296 c 27.24165,0.57381 56.24332,-1.13006 78.11954,6.38725 l -1.41753,11.34031 C 312.06964,338.04264 293.05903,331.35729 258.43717,330.08997 Z"
             id="path4310"
             inkscape:connector-curvature="0"
             sodipodi:nodetypes="ccccc" />
          <path
             style="fill:#999999;fill-opacity:1;stroke:none"
             d="m 324.47364,219.39674 -2.08241,104.1002 c -4.59567,-0.72381 -31.06033,-0.86858 -54.01901,-0.34252 2.4459,-1.21312 1.28604,-4.111 2.23176,-7.28906 0.44421,-1.49279 8.75003,-4.71912 9.95128,-5.71432 C 305.89391,289.15851 310.93556,259.54962 324.47364,219.39674 Z"
             id="path4312"
             inkscape:connector-curvature="0"
             sodipodi:nodetypes="cccssc" />
          <path
             style="fill:#cccccc;fill-opacity:1;stroke:none"
             d="m 338.2143,157.93108 0.35714,62.91729 0,120.39085 c -3.19157,2.26117 -2.65225,0.8473 -18.59645,-0.60233 1.36865,-18.16807 0.36492,-83.64991 0.36492,-132.85267 C 320.33991,174.44658 326.15803,158.45561 338.2143,157.93108 Z"
             id="path4314"
             inkscape:connector-curvature="0"
             sodipodi:nodetypes="ccccsc" />
          <path
             style="fill:#b3b3b3;fill-opacity:1;stroke:none"
             d="m 320.47089,321.26427 c 6.59384,-0.51998 13.30774,-1.42681 18.43529,2.77792 l -0.31567,23.29664 -25.7589,0.18941 C 312.93131,338.81555 320.61543,327.03915 320.47089,321.26427 Z"
             id="path4316"
             inkscape:connector-curvature="0"
             sodipodi:nodetypes="ccccc" />
          <path
             style="fill:#333333;fill-opacity:1;stroke:none"
             d="m 321.16863,348.60945 17.81467,0 c -0.56337,2.83637 -1.71356,5.60097 0,8.71585 -5.21655,0.80702 -10.53443,1.50075 -17.81467,0 C 322.36328,354.42001 322.95531,351.51473 321.16863,348.60945 Z"
             id="path4318"
             inkscape:connector-curvature="0"
             sodipodi:nodetypes="ccccc" />
          <path
             inkscape:connector-curvature="0"
             style="fill:#1a1a1a;fill-opacity:1;stroke:none"
             d="m 338.21484,157.93164 c -6.20238,0.26985 -10.74945,4.64481 -13.70703,13.35742 4.55866,-0.59836 9.14756,-0.92457 13.77735,-0.88281 L 338.21484,157.93164 Z"
             id="path4320" />
          <path
             style="fill:#1a1a1a;fill-opacity:1;stroke:none"
             d="m 333.1919,330.67906 5.71428,-6.69643 0,42.41072 L 337.20976,361.39335 Z"
             id="path4322"
             inkscape:connector-curvature="0"
             sodipodi:nodetypes="ccccc" />
          <path
             style="fill:#000000;fill-opacity:1;stroke:none"
             d="m 312.87833,346.81779 25.67301,0.24237 -0.18941,7.70241 c -8.12877,-4.56088 -15.73419,-0.22458 -23.56395,0.29773 C 315.39034,352.18679 311.47183,349.41658 312.87833,346.81779 Z"
             id="path4324"
             inkscape:connector-curvature="0"
             sodipodi:nodetypes="ccccc" />
        </g>
        <g
           transform="translate(32.19311,-1.4285714)"
           id="g4326">
          <path
             style="fill:#4d4d4d;fill-opacity:1;stroke:none"
             d="m 323.62194,201.72241 -2.50663,125.30672 c -5.53186,-0.87125 -37.38771,-1.04552 -65.02337,-0.41229 2.94417,-1.46025 1.54803,-4.94846 2.6864,-8.77393 0.53471,-1.79689 10.53253,-5.68047 11.97849,-6.87841 C 301.25728,285.69553 307.32598,250.05494 323.62194,201.72241 Z"
             id="path4328"
             inkscape:connector-curvature="0"
             sodipodi:nodetypes="cccssc" />
          <path
             sodipodi:nodetypes="ccccc"
             inkscape:connector-curvature="0"
             id="path4330"
             d="m 260.10724,324.05296 c 27.24165,0.57381 56.24332,-1.13006 78.11954,6.38725 l -1.41753,11.34031 C 312.06964,338.04264 293.05903,331.35729 258.43717,330.08997 Z"
             style="fill:#4d4d4d;fill-opacity:1;stroke:none" />
          <path
             sodipodi:nodetypes="cccssc"
             inkscape:connector-curvature="0"
             id="path4332"
             d="m 324.47364,219.39674 -2.08241,104.1002 c -4.59567,-0.72381 -31.06033,-0.86858 -54.01901,-0.34252 2.4459,-1.21312 1.28604,-4.111 2.23176,-7.28906 0.44421,-1.49279 8.75003,-4.71912 9.95128,-5.71432 C 305.89391,289.15851 310.93556,259.54962 324.47364,219.39674 Z"
             style="fill:#999999;fill-opacity:1;stroke:none" />
          <path
             sodipodi:nodetypes="ccccsc"
             inkscape:connector-curvature="0"
             id="path4334"
             d="m 338.2143,157.93108 0.35714,62.91729 0,120.39085 c -3.19157,2.26117 -2.65225,0.8473 -18.59645,-0.60233 1.36865,-18.16807 0.36492,-83.64991 0.36492,-132.85267 C 320.33991,174.44658 326.15803,158.45561 338.2143,157.93108 Z"
             style="fill:#cccccc;fill-opacity:1;stroke:none" />
          <path
             sodipodi:nodetypes="ccccc"
             inkscape:connector-curvature="0"
             id="path4336"
             d="m 320.47089,321.26427 c 6.59384,-0.51998 13.30774,-1.42681 18.43529,2.77792 l -0.31567,23.29664 -25.7589,0.18941 C 312.93131,338.81555 320.61543,327.03915 320.47089,321.26427 Z"
             style="fill:#b3b3b3;fill-opacity:1;stroke:none" />
          <path
             sodipodi:nodetypes="ccccc"
             inkscape:connector-curvature="0"
             id="path4338"
             d="m 321.16863,348.60945 17.81467,0 c -0.56337,2.83637 -1.71356,5.60097 0,8.71585 -5.21655,0.80702 -10.53443,1.50075 -17.81467,0 C 322.36328,354.42001 322.95531,351.51473 321.16863,348.60945 Z"
             style="fill:#333333;fill-opacity:1;stroke:none" />
          <path
             inkscape:connector-curvature="0"
             id="path4340"
             d="m 338.21484,157.93164 c -6.20238,0.26985 -10.74945,4.64481 -13.70703,13.35742 4.55866,-0.59836 9.14756,-0.92457 13.77735,-0.88281 L 338.21484,157.93164 Z"
             style="fill:#1a1a1a;fill-opacity:1;stroke:none" />
          <path
             sodipodi:nodetypes="ccccc"
             inkscape:connector-curvature="0"
             id="path4342"
             d="m 333.1919,330.67906 5.71428,-6.69643 0,42.41072 L 337.20976,361.39335 Z"
             style="fill:#1a1a1a;fill-opacity:1;stroke:none" />
          <path
             sodipodi:nodetypes="ccccc"
             inkscape:connector-curvature="0"
             id="path4344"
             d="m 312.87833,346.81779 25.67301,0.24237 -0.18941,7.70241 c -8.12877,-4.56088 -15.73419,-0.22458 -23.56395,0.29773 C 315.39034,352.18679 311.47183,349.41658 312.87833,346.81779 Z"
             style="fill:#000000;fill-opacity:1;stroke:none" />
        </g>
        <path
           sodipodi:nodetypes="ccccc"
           inkscape:connector-curvature="0"
           id="path4346"
           d="m 356.3456,178.66371 c 1.76202,0.6088 2.91745,1.5701 4.70446,2.60701 0.58189,1.86858 -1.42021,2.18675 -2.33598,3.15673 -0.96806,0.46766 -1.93613,0.54137 -2.90419,0 C 355.2685,182.44621 355.87796,180.56087 356.3456,178.66371 Z"
           style="fill:#000000;fill-opacity:1;stroke:none" />
        <path
           style="fill:#000000;fill-opacity:1;stroke:none"
           d="m 361.83219,174.30785 c 0.83439,0.69623 1.07948,2.06275 2.7696,3.57898 -2.16579,0.96166 -1.79212,1.96859 -2.47439,2.2212 -1.05734,-0.33591 -3.1218,-1.83882 -4.08986,-2.38019 C 357.85315,176.09 359.33896,173.30897 361.83219,174.30785 Z"
           id="path4348"
           inkscape:connector-curvature="0"
           sodipodi:nodetypes="ccccc" />
        <path
           inkscape:connector-curvature="0"
           id="path4350"
           d="m 366.29663,173.05581 c -0.9281,0.0179 -1.79476,0.13116 -2.40625,0.33398 0.26287,0.986 1.84618,3.3365 2.32031,4.12891 l 4.3164,0.0195 -0.0215,-3.78321 C 369.51853,173.25599 367.82733,173.02632 366.29663,173.05581 Z"
           style="fill:#000000;fill-opacity:1;stroke:none" />
        <g
           transform="translate(32.19311,-1.4285714)"
           id="g4352">
          <path
             sodipodi:nodetypes="cccssc"
             inkscape:connector-curvature="0"
             id="path4354"
             d="m 323.62194,201.72241 -2.50663,125.30672 c -5.53186,-0.87125 -37.38771,-1.04552 -65.02337,-0.41229 2.94417,-1.46025 1.54803,-4.94846 2.6864,-8.77393 0.53471,-1.79689 10.53253,-5.68047 11.97849,-6.87841 C 301.25728,285.69553 307.32598,250.05494 323.62194,201.72241 Z"
             style="fill:#4d4d4d;fill-opacity:1;stroke:none" />
          <path
             style="fill:#4d4d4d;fill-opacity:1;stroke:none"
             d="m 260.10724,324.05296 c 27.24165,0.57381 56.24332,-1.13006 78.11954,6.38725 l -1.41753,11.34031 C 312.06964,338.04264 293.05903,331.35729 258.43717,330.08997 Z"
             id="path4356"
             inkscape:connector-curvature="0"
             sodipodi:nodetypes="ccccc" />
          <path
             style="fill:#999999;fill-opacity:1;stroke:none"
             d="m 323.31293,218.50388 -0.9217,104.99306 c -4.59567,-0.72381 -31.06033,-0.86858 -54.01901,-0.34252 2.4459,-1.21312 1.28604,-4.111 2.23176,-7.28906 0.44421,-1.49279 8.75003,-4.71912 9.95128,-5.71432 C 305.89391,289.15851 309.77485,258.65676 323.31293,218.50388 Z"
             id="path4358"
             inkscape:connector-curvature="0"
             sodipodi:nodetypes="cccssc" />
          <path
             style="fill:#b3b3b3;fill-opacity:1;stroke:none"
             d="m 320.47089,321.26427 c 6.59384,-0.51998 13.30774,-1.42681 18.43529,2.77792 l -0.31567,23.29664 -25.7589,0.18941 C 312.93131,338.81555 320.61543,327.03915 320.47089,321.26427 Z"
             id="path4360"
             inkscape:connector-curvature="0"
             sodipodi:nodetypes="ccccc" />
          <path
             style="fill:#333333;fill-opacity:1;stroke:none"
             d="m 321.16863,348.60945 17.81467,0 c -0.56337,2.83637 -1.71356,5.60097 0,8.71585 -5.21655,0.80702 -10.53443,1.50075 -17.81467,0 C 322.36328,354.42001 322.95531,351.51473 321.16863,348.60945 Z"
             id="path4362"
             inkscape:connector-curvature="0"
             sodipodi:nodetypes="ccccc" />
          <path
             inkscape:connector-curvature="0"
             style="fill:#1a1a1a;fill-opacity:1;stroke:none"
             d="m 338.21484,157.93164 c -6.20238,0.26985 -10.74945,4.64481 -13.70703,13.35742 4.55866,-0.59836 9.14756,-0.92457 13.77735,-0.88281 L 338.21484,157.93164 Z"
             id="path4364" />
          <path
             style="fill:#1a1a1a;fill-opacity:1;stroke:none"
             d="m 333.1919,330.67906 5.71428,-6.69643 0,42.41072 L 337.20976,361.39335 Z"
             id="path4366"
             inkscape:connector-curvature="0"
             sodipodi:nodetypes="ccccc" />
          <path
             style="fill:#000000;fill-opacity:1;stroke:none"
             d="m 312.87833,346.81779 25.67301,0.24237 -0.18941,7.70241 c -8.12877,-4.56088 -15.73419,-0.22458 -23.56395,0.29773 C 315.39034,352.18679 311.47183,349.41658 312.87833,346.81779 Z"
             id="path4368"
             inkscape:connector-curvature="0"
             sodipodi:nodetypes="ccccc" />
        </g>
        <g
           transform="translate(32.19311,-1.4285714)"
           id="g4370">
          <path
             style="fill:#4d4d4d;fill-opacity:1;stroke:none"
             d="m 323.62194,201.72241 -2.50663,125.30672 c -5.53186,-0.87125 -37.38771,-1.04552 -65.02337,-0.41229 2.94417,-1.46025 1.54803,-4.94846 2.6864,-8.77393 0.53471,-1.79689 10.53253,-5.68047 11.97849,-6.87841 C 301.25728,285.69553 307.32598,250.05494 323.62194,201.72241 Z"
             id="path4372"
             inkscape:connector-curvature="0"
             sodipodi:nodetypes="cccssc" />
          <path
             sodipodi:nodetypes="ccccc"
             inkscape:connector-curvature="0"
             id="path4374"
             d="m 260.10724,324.05296 c 27.24165,0.57381 56.24332,-1.13006 78.11954,6.38725 l -1.41753,11.34031 C 312.06964,338.04264 293.05903,331.35729 258.43717,330.08997 Z"
             style="fill:#4d4d4d;fill-opacity:1;stroke:none" />
          <path
             sodipodi:nodetypes="cccssc"
             inkscape:connector-curvature="0"
             id="path4376"
             d="m 324.47364,219.39674 -2.08241,104.1002 c -4.59567,-0.72381 -31.06033,-0.86858 -54.01901,-0.34252 2.4459,-1.21312 1.28604,-4.111 2.23176,-7.28906 0.44421,-1.49279 8.75003,-4.71912 9.95128,-5.71432 C 305.89391,289.15851 310.93556,259.54962 324.47364,219.39674 Z"
             style="fill:#999999;fill-opacity:1;stroke:none" />
          <path
             sodipodi:nodetypes="ccccsc"
             inkscape:connector-curvature="0"
             id="path4378"
             d="m 338.2143,157.93108 0.35714,62.91729 0,120.39085 c -3.19157,2.26117 -2.65225,0.8473 -18.59645,-0.60233 1.36865,-18.16807 0.36492,-83.64991 0.36492,-132.85267 C 320.33991,174.44658 326.15803,158.45561 338.2143,157.93108 Z"
             style="fill:#cccccc;fill-opacity:1;stroke:none" />
          <path
             sodipodi:nodetypes="ccccc"
             inkscape:connector-curvature="0"
             id="path4380"
             d="m 320.47089,321.26427 c 6.59384,-0.51998 13.30774,-1.42681 18.43529,2.77792 l -0.31567,23.29664 -25.7589,0.18941 C 312.93131,338.81555 320.61543,327.03915 320.47089,321.26427 Z"
             style="fill:#b3b3b3;fill-opacity:1;stroke:none" />
          <path
             sodipodi:nodetypes="ccccc"
             inkscape:connector-curvature="0"
             id="path4382"
             d="m 321.16863,348.60945 17.81467,0 c -0.56337,2.83637 -1.71356,5.60097 0,8.71585 -5.21655,0.80702 -10.53443,1.50075 -17.81467,0 C 322.36328,354.42001 322.95531,351.51473 321.16863,348.60945 Z"
             style="fill:#333333;fill-opacity:1;stroke:none" />
          <path
             inkscape:connector-curvature="0"
             id="path4384"
             d="m 338.21484,157.93164 c -6.20238,0.26985 -10.74945,4.64481 -13.70703,13.35742 4.55866,-0.59836 9.14756,-0.92457 13.77735,-0.88281 L 338.21484,157.93164 Z"
             style="fill:#1a1a1a;fill-opacity:1;stroke:none" />
          <path
             sodipodi:nodetypes="ccccc"
             inkscape:connector-curvature="0"
             id="path4386"
             d="m 333.1919,330.67906 5.71428,-6.69643 0,42.41072 L 337.20976,361.39335 Z"
             style="fill:#1a1a1a;fill-opacity:1;stroke:none" />
          <path
             sodipodi:nodetypes="ccccc"
             inkscape:connector-curvature="0"
             id="path4388"
             d="m 312.87833,346.81779 25.67301,0.24237 -0.18941,7.70241 c -8.12877,-4.56088 -15.73419,-0.22458 -23.56395,0.29773 C 315.39034,352.18679 311.47183,349.41658 312.87833,346.81779 Z"
             style="fill:#000000;fill-opacity:1;stroke:none" />
        </g>
        <g
           id="g4390">
          <path
             sodipodi:nodetypes="cccssc"
             inkscape:connector-curvature="0"
             id="path4392"
             d="m 355.81505,200.29384 -2.50663,125.30672 c -5.53186,-0.87125 -37.38771,-1.04552 -65.02337,-0.41229 2.94417,-1.46025 1.54803,-4.94846 2.6864,-8.77393 0.53471,-1.79689 10.53253,-5.68047 11.97849,-6.87841 C 333.45039,284.26696 339.51909,248.62637 355.81505,200.29384 Z"
             style="fill:#4d4d4d;fill-opacity:1;stroke:none" />
          <path
             style="fill:#4d4d4d;fill-opacity:1;stroke:none"
             d="m 292.30035,322.62439 c 27.24165,0.57381 56.24332,-1.13006 78.11954,6.38725 l -1.41753,11.34031 C 344.26275,336.61407 325.25214,329.92872 290.63028,328.6614 Z"
             id="path4394"
             inkscape:connector-curvature="0"
             sodipodi:nodetypes="ccccc" />
          <path
             style="fill:#999999;fill-opacity:1;stroke:none"
             d="m 356.66675,217.96817 -2.08241,104.1002 c -4.59567,-0.72381 -31.06033,-0.86858 -54.01901,-0.34252 2.4459,-1.21312 1.28604,-4.111 2.23176,-7.28906 0.44421,-1.49279 8.75003,-4.71912 9.95128,-5.71432 C 338.08702,287.72994 343.12867,258.12105 356.66675,217.96817 Z"
             id="path4396"
             inkscape:connector-curvature="0"
             sodipodi:nodetypes="cccssc" />
          <path
             style="fill:#cccccc;fill-opacity:1;stroke:none"
             d="m 370.40741,156.50251 0.35714,62.91729 0,120.39085 c -3.19157,2.26117 -2.65225,0.8473 -18.59645,-0.60233 1.36865,-18.16807 0.36492,-83.64991 0.36492,-132.85267 C 352.53302,173.01801 358.35114,157.02704 370.40741,156.50251 Z"
             id="path4398"
             inkscape:connector-curvature="0"
             sodipodi:nodetypes="ccccsc" />
          <path
             style="fill:#b3b3b3;fill-opacity:1;stroke:none"
             d="m 352.664,319.8357 c 6.59384,-0.51998 13.30774,-1.42681 18.43529,2.77792 l -0.31567,23.29664 -25.7589,0.18941 C 345.12442,337.38698 352.80854,325.61058 352.664,319.8357 Z"
             id="path4400"
             inkscape:connector-curvature="0"
             sodipodi:nodetypes="ccccc" />
          <path
             style="fill:#333333;fill-opacity:1;stroke:none"
             d="m 353.36174,347.18088 17.81467,0 c -0.56337,2.83637 -1.71356,5.60097 0,8.71585 -5.21655,0.80702 -10.53443,1.50075 -17.81467,0 C 354.55639,352.99144 355.14842,350.08616 353.36174,347.18088 Z"
             id="path4402"
             inkscape:connector-curvature="0"
             sodipodi:nodetypes="ccccc" />
          <path
             inkscape:connector-curvature="0"
             style="fill:#1a1a1a;fill-opacity:1;stroke:none"
             d="m 370.40795,156.50307 c -6.20238,0.26985 -10.74945,4.64481 -13.70703,13.35742 4.55866,-0.59836 9.14756,-0.92457 13.77735,-0.88281 L 370.40795,156.50307 Z"
             id="path4404" />
          <path
             style="fill:#1a1a1a;fill-opacity:1;stroke:none"
             d="m 365.38501,329.25049 5.71428,-6.69643 0,42.41072 L 369.40287,359.96478 Z"
             id="path4406"
             inkscape:connector-curvature="0"
             sodipodi:nodetypes="ccccc" />
          <path
             style="fill:#000000;fill-opacity:1;stroke:none"
             d="m 345.07144,345.38922 25.67301,0.24237 -0.18941,7.70241 c -8.12877,-4.56088 -15.73419,-0.22458 -23.56395,0.29773 C 347.58345,350.75822 343.66494,347.98801 345.07144,345.38922 Z"
             id="path4408"
             inkscape:connector-curvature="0"
             sodipodi:nodetypes="ccccc" />
        </g>
        <path
           style="fill:#000000;fill-opacity:1;stroke:none"
           d="m 356.3456,178.66371 c 1.76202,0.6088 2.91745,1.5701 4.70446,2.60701 0.58189,1.86858 -1.42021,2.18675 -2.33598,3.15673 -0.96806,0.46766 -1.93613,0.54137 -2.90419,0 C 355.2685,182.44621 355.87796,180.56087 356.3456,178.66371 Z"
           id="path4410"
           inkscape:connector-curvature="0"
           sodipodi:nodetypes="ccccc" />
        <path
           sodipodi:nodetypes="ccccc"
           inkscape:connector-curvature="0"
           id="path4412"
           d="m 361.83219,174.30785 c 0.83439,0.69623 1.07948,2.06275 2.7696,3.57898 -2.16579,0.96166 -1.79212,1.96859 -2.47439,2.2212 -1.05734,-0.33591 -3.1218,-1.83882 -4.08986,-2.38019 C 357.85315,176.09 359.33896,173.30897 361.83219,174.30785 Z"
           style="fill:#000000;fill-opacity:1;stroke:none" />
        <path
           inkscape:connector-curvature="0"
           style="fill:#000000;fill-opacity:1;stroke:none"
           d="m 366.29663,173.05581 c -0.9281,0.0179 -1.79476,0.13116 -2.40625,0.33398 0.26287,0.986 1.84618,3.3365 2.32031,4.12891 l 4.3164,0.0195 -0.0215,-3.78321 C 369.51853,173.25599 367.82733,173.02632 366.29663,173.05581 Z"
           id="path4414" />
        <g
           transform="translate(32.19311,-1.4285714)"
           id="g4416">
          <path
             style="fill:#4d4d4d;fill-opacity:1;stroke:none"
             d="m 323.62194,201.72241 -2.50663,125.30672 c -5.53186,-0.87125 -37.38771,-1.04552 -65.02337,-0.41229 2.94417,-1.46025 1.54803,-4.94846 2.6864,-8.77393 0.53471,-1.79689 10.53253,-5.68047 11.97849,-6.87841 C 301.25728,285.69553 307.32598,250.05494 323.62194,201.72241 Z"
             id="path4418"
             inkscape:connector-curvature="0"
             sodipodi:nodetypes="cccssc" />
          <path
             sodipodi:nodetypes="ccccc"
             inkscape:connector-curvature="0"
             id="path4420"
             d="m 260.10724,324.05296 c 27.24165,0.57381 56.24332,-1.13006 78.11954,6.38725 l -1.41753,11.34031 C 312.06964,338.04264 293.05903,331.35729 258.43717,330.08997 Z"
             style="fill:#4d4d4d;fill-opacity:1;stroke:none" />
          <path
             sodipodi:nodetypes="cccssc"
             inkscape:connector-curvature="0"
             id="path4422"
             d="m 323.31293,218.50388 -0.9217,104.99306 c -4.59567,-0.72381 -31.06033,-0.86858 -54.01901,-0.34252 2.4459,-1.21312 1.28604,-4.111 2.23176,-7.28906 0.44421,-1.49279 8.75003,-4.71912 9.95128,-5.71432 C 305.89391,289.15851 309.77485,258.65676 323.31293,218.50388 Z"
             style="fill:#999999;fill-opacity:1;stroke:none" />
          <path
             sodipodi:nodetypes="ccccc"
             inkscape:connector-curvature="0"
             id="path4424"
             d="m 320.47089,321.26427 c 6.59384,-0.51998 13.30774,-1.42681 18.43529,2.77792 l -0.31567,23.29664 -25.7589,0.18941 C 312.93131,338.81555 320.61543,327.03915 320.47089,321.26427 Z"
             style="fill:#b3b3b3;fill-opacity:1;stroke:none" />
          <path
             sodipodi:nodetypes="ccccc"
             inkscape:connector-curvature="0"
             id="path4426"
             d="m 321.16863,348.60945 17.81467,0 c -0.56337,2.83637 -1.71356,5.60097 0,8.71585 -5.21655,0.80702 -10.53443,1.50075 -17.81467,0 C 322.36328,354.42001 322.95531,351.51473 321.16863,348.60945 Z"
             style="fill:#333333;fill-opacity:1;stroke:none" />
          <path
             inkscape:connector-curvature="0"
             id="path4428"
             d="m 338.21484,157.93164 c -6.20238,0.26985 -10.74945,4.64481 -13.70703,13.35742 4.55866,-0.59836 9.14756,-0.92457 13.77735,-0.88281 L 338.21484,157.93164 Z"
             style="fill:#1a1a1a;fill-opacity:1;stroke:none" />
          <path
             sodipodi:nodetypes="ccccc"
             inkscape:connector-curvature="0"
             id="path4430"
             d="m 333.1919,330.67906 5.71428,-6.69643 0,42.41072 L 337.20976,361.39335 Z"
             style="fill:#1a1a1a;fill-opacity:1;stroke:none" />
          <path
             sodipodi:nodetypes="ccccc"
             inkscape:connector-curvature="0"
             id="path4432"
             d="m 312.87833,346.81779 25.67301,0.24237 -0.18941,7.70241 c -8.12877,-4.56088 -15.73419,-0.22458 -23.56395,0.29773 C 315.39034,352.18679 311.47183,349.41658 312.87833,346.81779 Z"
             style="fill:#000000;fill-opacity:1;stroke:none" />
        </g>
      </g>
    </g>
    <rect
       style="fill:#000000;fill-opacity:1;stroke:none"
       id="rect4566"
       width="475.62253"
       height="312.13364"
       x="213.67677"
       y="439.50531"
       ry="8.1679831"
       rx="7.692173"
       inkscape:export-filename="C:\Users\Guido\Documents\GitHub\LD31\LD31\LD31\assets\window.png"
       inkscape:export-xdpi="61.687572"
       inkscape:export-ydpi="61.687572" />
    <rect
       rx="7.4464231"
       ry="7.4468665"
       y="458.86075"
       x="220.93102"
       height="284.57672"
       width="460.42734"
       id="rect4568"
       style="fill:#ffffff;fill-opacity:1;stroke:none"
       inkscape:export-filename="C:\Users\Guido\Documents\GitHub\LD31\LD31\LD31\assets\window.png"
       inkscape:export-xdpi="61.687572"
       inkscape:export-ydpi="61.687572" />
    <text
       xml:space="preserve"
       style="font-size:19.23043251px;font-style:normal;font-variant:normal;font-weight:normal;font-stretch:normal;line-height:125%;letter-spacing:0px;word-spacing:0px;fill:#e3e2db;fill-opacity:1;stroke:none;font-family:OCR A Extended;-inkscape-font-specification:OCR A Extended"
       x="347.36273"
       y="454.43661"
       id="text4570"
       sodipodi:linespacing="125%"
       inkscape:export-filename="C:\Users\Guido\Documents\GitHub\LD31\LD31\LD31\assets\window.png"
       inkscape:export-xdpi="61.687572"
       inkscape:export-ydpi="61.687572"><tspan
         sodipodi:role="line"
         id="tspan4572"
         x="347.36273"
         y="454.43661"
         style="font-style:normal;font-variant:normal;font-weight:normal;font-stretch:normal;fill:#e3e2db;font-family:OCR A Extended;-inkscape-font-specification:OCR A Extended">trafficcontrol.exe</tspan></text>
    <path
       sodipodi:type="arc"
       style="fill:#d40000;fill-opacity:1;stroke:none"
       id="path4574"
       sodipodi:cx="531.875"
       sodipodi:cy="536.55859"
       sodipodi:rx="2.6785715"
       sodipodi:ry="2.6785715"
       d="m 534.55357,536.55859 a 2.6785715,2.6785715 0 1 1 -5.35714,0 A 2.6785715,2.6785715 0 1 1 534.55357,536.55859 Z"
       transform="matrix(1.9230432,0,0,1.9230432,-792.65764,-583.77319)"
       inkscape:export-filename="C:\Users\Guido\Documents\GitHub\LD31\LD31\LD31\assets\window.png"
       inkscape:export-xdpi="61.687572"
       inkscape:export-ydpi="61.687572" />
    <path
       transform="matrix(1.9230432,0,0,1.9230432,-778.3312,-583.65178)"
       d="m 534.55357,536.55859 a 2.6785715,2.6785715 0 1 1 -5.35714,0 A 2.6785715,2.6785715 0 1 1 534.55357,536.55859 Z"
       sodipodi:ry="2.6785715"
       sodipodi:rx="2.6785715"
       sodipodi:cy="536.55859"
       sodipodi:cx="531.875"
       id="path4576"
       style="fill:#ffcc00;fill-opacity:1;stroke:none"
       sodipodi:type="arc"
       inkscape:export-filename="C:\Users\Guido\Documents\GitHub\LD31\LD31\LD31\assets\window.png"
       inkscape:export-xdpi="61.687572"
       inkscape:export-ydpi="61.687572" />
    <path
       sodipodi:type="arc"
       style="fill:#00ff00;fill-opacity:1;stroke:none"
       id="path4578"
       sodipodi:cx="531.875"
       sodipodi:cy="536.55859"
       sodipodi:rx="2.6785715"
       sodipodi:ry="2.6785715"
       d="m 534.55357,536.55859 a 2.6785715,2.6785715 0 1 1 -5.35714,0 A 2.6785715,2.6785715 0 1 1 534.55357,536.55859 Z"
       transform="matrix(1.9230432,0,0,1.9230432,-764.49042,-583.77319)"
       inkscape:export-filename="C:\Users\Guido\Documents\GitHub\LD31\LD31\LD31\assets\window.png"
       inkscape:export-xdpi="61.687572"
       inkscape:export-ydpi="61.687572" />
    <path
       transform="matrix(1.5865106,0,0,1.5865106,-585.49718,-403.20375)"
       d="m 534.55357,536.55859 a 2.6785715,2.6785715 0 1 1 -5.35714,0 A 2.6785715,2.6785715 0 1 1 534.55357,536.55859 Z"
       sodipodi:ry="2.6785715"
       sodipodi:rx="2.6785715"
       sodipodi:cy="536.55859"
       sodipodi:cx="531.875"
       id="path4580"
       style="fill:#5aa02c;fill-opacity:1;stroke:none"
       sodipodi:type="arc"
       inkscape:export-filename="C:\Users\Guido\Documents\GitHub\LD31\LD31\LD31\assets\window.png"
       inkscape:export-xdpi="61.687572"
       inkscape:export-ydpi="61.687572" />
    <path
       sodipodi:type="arc"
       style="fill:#d3bc5f;fill-opacity:1;stroke:none"
       id="path4582"
       sodipodi:cx="531.875"
       sodipodi:cy="536.55859"
       sodipodi:rx="2.6785715"
       sodipodi:ry="2.6785715"
       d="m 534.55357,536.55859 a 2.6785715,2.6785715 0 1 1 -5.35714,0 A 2.6785715,2.6785715 0 1 1 534.55357,536.55859 Z"
       transform="matrix(1.5704853,0,0,1.5704853,-590.81445,-394.4838)"
       inkscape:export-filename="C:\Users\Guido\Documents\GitHub\LD31\LD31\LD31\assets\window.png"
       inkscape:export-xdpi="61.687572"
       inkscape:export-ydpi="61.687572" />
    <path
       transform="matrix(1.7307389,0,0,1.7307389,-690.37578,-480.59065)"
       d="m 534.55357,536.55859 a 2.6785715,2.6785715 0 1 1 -5.35714,0 A 2.6785715,2.6785715 0 1 1 534.55357,536.55859 Z"
       sodipodi:ry="2.6785715"
       sodipodi:rx="2.6785715"
       sodipodi:cy="536.55859"
       sodipodi:cx="531.875"
       id="path4584"
       style="fill:#a70000;fill-opacity:1;stroke:none"
       sodipodi:type="arc"
       inkscape:export-filename="C:\Users\Guido\Documents\GitHub\LD31\LD31\LD31\assets\window.png"
       inkscape:export-xdpi="61.687572"
       inkscape:export-ydpi="61.687572" />
    <rect
       inkscape:export-ydpi="61.687572"
       inkscape:export-xdpi="61.687572"
       inkscape:export-filename="C:\Users\Guido\Documents\GitHub\LD31\LD31\LD31\assets\window.png"
       rx="7.692173"
       ry="8.4323225"
       y="393.79102"
       x="-654.89465"
       height="322.23514"
       width="475.62253"
       id="rect4590"
       style="fill:#000000;fill-opacity:1;stroke:none" />
    <rect
       inkscape:export-ydpi="61.687572"
       inkscape:export-xdpi="61.687572"
       inkscape:export-filename="C:\Users\Guido\Documents\GitHub\LD31\LD31\LD31\assets\window.png"
       style="fill:#ffffff;fill-opacity:1;stroke:none"
       id="rect4592"
       width="460.42734"
       height="294.67825"
       x="-647.64044"
       y="413.14645"
       ry="7.7112055"
       rx="7.4464231" />
    <text
       inkscape:export-ydpi="61.704502"
       inkscape:export-xdpi="61.704502"
       inkscape:export-filename="C:\Users\Guido\Documents\GitHub\LD31\LD31\LD31\assets\window.png"
       sodipodi:linespacing="125%"
       id="text4594"
       y="408.72232"
       x="-521.20868"
       style="font-size:19.23043251px;font-style:normal;font-variant:normal;font-weight:normal;font-stretch:normal;line-height:125%;letter-spacing:0px;word-spacing:0px;fill:#e3e2db;fill-opacity:1;stroke:none;font-family:OCR A Extended;-inkscape-font-specification:OCR A Extended"
       xml:space="preserve"><tspan
         style="font-style:normal;font-variant:normal;font-weight:normal;font-stretch:normal;fill:#e3e2db;font-family:OCR A Extended;-inkscape-font-specification:OCR A Extended"
         y="408.72232"
         x="-521.20868"
         id="tspan4596"
         sodipodi:role="line">trafficcontrol.exe</tspan></text>
    <path
       inkscape:export-ydpi="61.704502"
       inkscape:export-xdpi="61.704502"
       inkscape:export-filename="C:\Users\Guido\Documents\GitHub\LD31\LD31\LD31\assets\window.png"
       transform="matrix(1.9230432,0,0,1.9230432,-1661.2291,-629.48748)"
       d="m 534.55357,536.55859 a 2.6785715,2.6785715 0 1 1 -5.35714,0 A 2.6785715,2.6785715 0 1 1 534.55357,536.55859 Z"
       sodipodi:ry="2.6785715"
       sodipodi:rx="2.6785715"
       sodipodi:cy="536.55859"
       sodipodi:cx="531.875"
       id="path4598"
       style="fill:#d40000;fill-opacity:1;stroke:none"
       sodipodi:type="arc" />
    <path
       inkscape:export-ydpi="61.704502"
       inkscape:export-xdpi="61.704502"
       inkscape:export-filename="C:\Users\Guido\Documents\GitHub\LD31\LD31\LD31\assets\window.png"
       sodipodi:type="arc"
       style="fill:#ffcc00;fill-opacity:1;stroke:none"
       id="path4600"
       sodipodi:cx="531.875"
       sodipodi:cy="536.55859"
       sodipodi:rx="2.6785715"
       sodipodi:ry="2.6785715"
       d="m 534.55357,536.55859 a 2.6785715,2.6785715 0 1 1 -5.35714,0 A 2.6785715,2.6785715 0 1 1 534.55357,536.55859 Z"
       transform="matrix(1.9230432,0,0,1.9230432,-1646.9026,-629.36607)" />
    <path
       inkscape:export-ydpi="61.704502"
       inkscape:export-xdpi="61.704502"
       inkscape:export-filename="C:\Users\Guido\Documents\GitHub\LD31\LD31\LD31\assets\window.png"
       transform="matrix(1.9230432,0,0,1.9230432,-1633.0618,-629.48748)"
       d="m 534.55357,536.55859 a 2.6785715,2.6785715 0 1 1 -5.35714,0 A 2.6785715,2.6785715 0 1 1 534.55357,536.55859 Z"
       sodipodi:ry="2.6785715"
       sodipodi:rx="2.6785715"
       sodipodi:cy="536.55859"
       sodipodi:cx="531.875"
       id="path4602"
       style="fill:#00ff00;fill-opacity:1;stroke:none"
       sodipodi:type="arc" />
    <path
       inkscape:export-ydpi="61.704502"
       inkscape:export-xdpi="61.704502"
       inkscape:export-filename="C:\Users\Guido\Documents\GitHub\LD31\LD31\LD31\assets\window.png"
       sodipodi:type="arc"
       style="fill:#5aa02c;fill-opacity:1;stroke:none"
       id="path4604"
       sodipodi:cx="531.875"
       sodipodi:cy="536.55859"
       sodipodi:rx="2.6785715"
       sodipodi:ry="2.6785715"
       d="m 534.55357,536.55859 a 2.6785715,2.6785715 0 1 1 -5.35714,0 A 2.6785715,2.6785715 0 1 1 534.55357,536.55859 Z"
       transform="matrix(1.5865106,0,0,1.5865106,-1454.0686,-448.91804)" />
    <path
       inkscape:export-ydpi="61.704502"
       inkscape:export-xdpi="61.704502"
       inkscape:export-filename="C:\Users\Guido\Documents\GitHub\LD31\LD31\LD31\assets\window.png"
       transform="matrix(1.5704853,0,0,1.5704853,-1459.3859,-440.19809)"
       d="m 534.55357,536.55859 a 2.6785715,2.6785715 0 1 1 -5.35714,0 A 2.6785715,2.6785715 0 1 1 534.55357,536.55859 Z"
       sodipodi:ry="2.6785715"
       sodipodi:rx="2.6785715"
       sodipodi:cy="536.55859"
       sodipodi:cx="531.875"
       id="path4606"
       style="fill:#d3bc5f;fill-opacity:1;stroke:none"
       sodipodi:type="arc" />
    <path
       inkscape:export-ydpi="61.704502"
       inkscape:export-xdpi="61.704502"
       inkscape:export-filename="C:\Users\Guido\Documents\GitHub\LD31\LD31\LD31\assets\window.png"
       sodipodi:type="arc"
       style="fill:#a70000;fill-opacity:1;stroke:none"
       id="path4608"
       sodipodi:cx="531.875"
       sodipodi:cy="536.55859"
       sodipodi:rx="2.6785715"
       sodipodi:ry="2.6785715"
       d="m 534.55357,536.55859 a 2.6785715,2.6785715 0 1 1 -5.35714,0 A 2.6785715,2.6785715 0 1 1 534.55357,536.55859 Z"
       transform="matrix(1.7307389,0,0,1.7307389,-1558.9472,-526.30494)" />
    <path
       style="fill:#000000;fill-opacity:1;stroke:none"
       d="M -798.72461 -192.09766 C -802.98607 -192.09766 -806.41797 -188.33752 -806.41797 -183.66602 L -806.41797 121.70508 C -806.41797 126.37658 -802.98607 130.13672 -798.72461 130.13672 L -338.48633 130.13672 C -334.22486 130.13672 -330.79492 126.37658 -330.79492 121.70508 L -330.79492 -183.66602 C -330.79492 -188.33752 -334.22486 -192.09766 -338.48633 -192.09766 L -798.72461 -192.09766 z M -791.7168 -172.74219 L -346.18164 -172.74219 C -342.05632 -172.74219 -338.73633 -169.30326 -338.73633 -165.03125 L -338.73633 114.22461 C -338.73633 118.49662 -342.05632 121.93555 -346.18164 121.93555 L -791.7168 121.93555 C -795.84212 121.93555 -799.16406 118.49662 -799.16406 114.22461 L -799.16406 -165.03125 C -799.16406 -169.30326 -795.84212 -172.74219 -791.7168 -172.74219 z "
       id="rect4613"
       inkscape:export-filename="C:\Users\Guido\Documents\GitHub\LD31\LD31\LD31\assets\window.png"
       inkscape:export-xdpi="63.768986"
       inkscape:export-ydpi="63.768986" />
    <text
       xml:space="preserve"
       style="font-size:19.23043251px;font-style:normal;font-variant:normal;font-weight:normal;font-stretch:normal;line-height:125%;letter-spacing:0px;word-spacing:0px;fill:#e3e2db;fill-opacity:1;stroke:none;font-family:OCR A Extended;-inkscape-font-specification:OCR A Extended"
       x="-672.73157"
       y="-177.16615"
       id="text4617"
       sodipodi:linespacing="125%"
       inkscape:export-filename="C:\Users\Guido\Documents\GitHub\LD31\LD31\LD31\assets\window.png"
       inkscape:export-xdpi="63.768986"
       inkscape:export-ydpi="63.768986"><tspan
         sodipodi:role="line"
         id="tspan4619"
         x="-672.73157"
         y="-177.16615"
         style="font-style:normal;font-variant:normal;font-weight:normal;font-stretch:normal;fill:#e3e2db;font-family:OCR A Extended;-inkscape-font-specification:OCR A Extended">trafficcontrol.exe</tspan></text>
    <path
       sodipodi:type="arc"
       style="fill:#d40000;fill-opacity:1;stroke:none"
       id="path4621"
       sodipodi:cx="531.875"
       sodipodi:cy="536.55859"
       sodipodi:rx="2.6785715"
       sodipodi:ry="2.6785715"
       d="m 534.55357,536.55859 a 2.6785715,2.6785715 0 1 1 -5.35714,0 A 2.6785715,2.6785715 0 1 1 534.55357,536.55859 Z"
       transform="matrix(1.9230432,0,0,1.9230432,-1812.752,-1215.376)"
       inkscape:export-filename="C:\Users\Guido\Documents\GitHub\LD31\LD31\LD31\assets\window.png"
       inkscape:export-xdpi="63.768986"
       inkscape:export-ydpi="63.768986" />
    <path
       transform="matrix(1.9230432,0,0,1.9230432,-1798.4255,-1215.2545)"
       d="m 534.55357,536.55859 a 2.6785715,2.6785715 0 1 1 -5.35714,0 A 2.6785715,2.6785715 0 1 1 534.55357,536.55859 Z"
       sodipodi:ry="2.6785715"
       sodipodi:rx="2.6785715"
       sodipodi:cy="536.55859"
       sodipodi:cx="531.875"
       id="path4623"
       style="fill:#ffcc00;fill-opacity:1;stroke:none"
       sodipodi:type="arc"
       inkscape:export-filename="C:\Users\Guido\Documents\GitHub\LD31\LD31\LD31\assets\window.png"
       inkscape:export-xdpi="63.768986"
       inkscape:export-ydpi="63.768986" />
    <path
       sodipodi:type="arc"
       style="fill:#00ff00;fill-opacity:1;stroke:none"
       id="path4625"
       sodipodi:cx="531.875"
       sodipodi:cy="536.55859"
       sodipodi:rx="2.6785715"
       sodipodi:ry="2.6785715"
       d="m 534.55357,536.55859 a 2.6785715,2.6785715 0 1 1 -5.35714,0 A 2.6785715,2.6785715 0 1 1 534.55357,536.55859 Z"
       transform="matrix(1.9230432,0,0,1.9230432,-1784.5847,-1215.376)"
       inkscape:export-filename="C:\Users\Guido\Documents\GitHub\LD31\LD31\LD31\assets\window.png"
       inkscape:export-xdpi="63.768986"
       inkscape:export-ydpi="63.768986" />
    <path
       transform="matrix(1.5865106,0,0,1.5865106,-1605.5915,-1034.8065)"
       d="m 534.55357,536.55859 a 2.6785715,2.6785715 0 1 1 -5.35714,0 A 2.6785715,2.6785715 0 1 1 534.55357,536.55859 Z"
       sodipodi:ry="2.6785715"
       sodipodi:rx="2.6785715"
       sodipodi:cy="536.55859"
       sodipodi:cx="531.875"
       id="path4627"
       style="fill:#5aa02c;fill-opacity:1;stroke:none"
       sodipodi:type="arc"
       inkscape:export-filename="C:\Users\Guido\Documents\GitHub\LD31\LD31\LD31\assets\window.png"
       inkscape:export-xdpi="63.768986"
       inkscape:export-ydpi="63.768986" />
    <path
       sodipodi:type="arc"
       style="fill:#d3bc5f;fill-opacity:1;stroke:none"
       id="path4629"
       sodipodi:cx="531.875"
       sodipodi:cy="536.55859"
       sodipodi:rx="2.6785715"
       sodipodi:ry="2.6785715"
       d="m 534.55357,536.55859 a 2.6785715,2.6785715 0 1 1 -5.35714,0 A 2.6785715,2.6785715 0 1 1 534.55357,536.55859 Z"
       transform="matrix(1.5704853,0,0,1.5704853,-1610.9088,-1026.0866)"
       inkscape:export-filename="C:\Users\Guido\Documents\GitHub\LD31\LD31\LD31\assets\window.png"
       inkscape:export-xdpi="63.768986"
       inkscape:export-ydpi="63.768986" />
    <path
       transform="matrix(1.7307389,0,0,1.7307389,-1710.4701,-1112.1934)"
       d="m 534.55357,536.55859 a 2.6785715,2.6785715 0 1 1 -5.35714,0 A 2.6785715,2.6785715 0 1 1 534.55357,536.55859 Z"
       sodipodi:ry="2.6785715"
       sodipodi:rx="2.6785715"
       sodipodi:cy="536.55859"
       sodipodi:cx="531.875"
       id="path4631"
       style="fill:#a70000;fill-opacity:1;stroke:none"
       sodipodi:type="arc"
       inkscape:export-filename="C:\Users\Guido\Documents\GitHub\LD31\LD31\LD31\assets\window.png"
       inkscape:export-xdpi="63.768986"
       inkscape:export-ydpi="63.768986" />
  </g>
</svg>
